<mxfile host="app.diagrams.net" agent="Mozilla/5.0 (Windows NT 10.0; Win64; x64) AppleWebKit/537.36 (KHTML, like Gecko) Chrome/139.0.0.0 Safari/537.36" version="28.1.1">
  <diagram name="第 1 页" id="RGmQroDqB4q25eG4RAZ-">
    <mxGraphModel dx="1188" dy="619" grid="1" gridSize="10" guides="1" tooltips="1" connect="1" arrows="1" fold="1" page="1" pageScale="1" pageWidth="827" pageHeight="1169" math="1" shadow="0">
      <root>
        <mxCell id="0" />
        <mxCell id="1" parent="0" />
        <mxCell id="-YEli1nWcmMKRqae06TI-6" value="$$Id_v$$" style="rounded=1;whiteSpace=wrap;html=1;" vertex="1" parent="1">
          <mxGeometry x="50" y="90" width="120" height="60" as="geometry" />
        </mxCell>
        <mxCell id="-YEli1nWcmMKRqae06TI-7" value="$$Id_i$$" style="rounded=1;whiteSpace=wrap;html=1;" vertex="1" parent="1">
          <mxGeometry x="50" y="390" width="120" height="60" as="geometry" />
        </mxCell>
        <mxCell id="-YEli1nWcmMKRqae06TI-8" value="" style="rounded=0;whiteSpace=wrap;html=1;" vertex="1" parent="1">
          <mxGeometry x="210" width="970" height="790" as="geometry" />
        </mxCell>
        <mxCell id="-YEli1nWcmMKRqae06TI-9" value="专家感知噪声的图像复原" style="rounded=0;whiteSpace=wrap;html=1;" vertex="1" parent="1">
          <mxGeometry x="210" width="970" height="30" as="geometry" />
        </mxCell>
        <mxCell id="-YEli1nWcmMKRqae06TI-10" value="Transformer&lt;br&gt;Block" style="rounded=0;whiteSpace=wrap;html=1;" vertex="1" parent="1">
          <mxGeometry x="230" y="90" width="110" height="130" as="geometry" />
        </mxCell>
        <mxCell id="-YEli1nWcmMKRqae06TI-11" value="Encoder" style="rounded=0;whiteSpace=wrap;html=1;" vertex="1" parent="1">
          <mxGeometry x="230" y="90" width="110" height="30" as="geometry" />
        </mxCell>
        <mxCell id="-YEli1nWcmMKRqae06TI-12" value="Transformer&lt;br&gt;Block" style="rounded=0;whiteSpace=wrap;html=1;" vertex="1" parent="1">
          <mxGeometry x="240" y="450" width="110" height="130" as="geometry" />
        </mxCell>
        <mxCell id="-YEli1nWcmMKRqae06TI-29" value="" style="rounded=0;whiteSpace=wrap;html=1;" vertex="1" parent="1">
          <mxGeometry x="430" y="50" width="240" height="220" as="geometry" />
        </mxCell>
        <mxCell id="-YEli1nWcmMKRqae06TI-13" value="Encoder" style="rounded=0;whiteSpace=wrap;html=1;" vertex="1" parent="1">
          <mxGeometry x="240" y="450" width="110" height="30" as="geometry" />
        </mxCell>
        <mxCell id="-YEli1nWcmMKRqae06TI-14" value="Z" style="rounded=1;whiteSpace=wrap;html=1;" vertex="1" parent="1">
          <mxGeometry x="550" y="95" width="100" height="75" as="geometry" />
        </mxCell>
        <mxCell id="-YEli1nWcmMKRqae06TI-15" value="$$\mu$$" style="rounded=1;whiteSpace=wrap;html=1;" vertex="1" parent="1">
          <mxGeometry x="460" y="80" width="65" height="40" as="geometry" />
        </mxCell>
        <mxCell id="-YEli1nWcmMKRqae06TI-16" value="$$\sigma$$" style="rounded=1;whiteSpace=wrap;html=1;" vertex="1" parent="1">
          <mxGeometry x="460" y="140" width="65" height="40" as="geometry" />
        </mxCell>
        <mxCell id="-YEli1nWcmMKRqae06TI-18" value="N(0,I)" style="rounded=1;whiteSpace=wrap;html=1;" vertex="1" parent="1">
          <mxGeometry x="550" y="220" width="65" height="40" as="geometry" />
        </mxCell>
        <mxCell id="-YEli1nWcmMKRqae06TI-19" value="Z" style="rounded=1;whiteSpace=wrap;html=1;" vertex="1" parent="1">
          <mxGeometry x="381" y="470" width="65" height="40" as="geometry" />
        </mxCell>
        <mxCell id="-YEli1nWcmMKRqae06TI-20" value="$$\mu$$" style="rounded=1;whiteSpace=wrap;html=1;" vertex="1" parent="1">
          <mxGeometry x="460" y="440" width="65" height="40" as="geometry" />
        </mxCell>
        <mxCell id="-YEli1nWcmMKRqae06TI-21" value="$$\sigma$$" style="rounded=1;whiteSpace=wrap;html=1;" vertex="1" parent="1">
          <mxGeometry x="460" y="500" width="65" height="40" as="geometry" />
        </mxCell>
        <mxCell id="-YEli1nWcmMKRqae06TI-37" value="" style="rounded=0;whiteSpace=wrap;html=1;" vertex="1" parent="1">
          <mxGeometry x="780" y="40" width="180" height="325" as="geometry" />
        </mxCell>
        <mxCell id="-YEli1nWcmMKRqae06TI-22" value="N(0,I)" style="rounded=1;whiteSpace=wrap;html=1;" vertex="1" parent="1">
          <mxGeometry x="381" y="570" width="65" height="40" as="geometry" />
        </mxCell>
        <mxCell id="-YEli1nWcmMKRqae06TI-23" value="Transformer&lt;br&gt;Block" style="rounded=0;whiteSpace=wrap;html=1;" vertex="1" parent="1">
          <mxGeometry x="827" y="50" width="110" height="130" as="geometry" />
        </mxCell>
        <mxCell id="-YEli1nWcmMKRqae06TI-24" value="Decoder" style="rounded=0;whiteSpace=wrap;html=1;" vertex="1" parent="1">
          <mxGeometry x="827" y="50" width="110" height="30" as="geometry" />
        </mxCell>
        <mxCell id="-YEli1nWcmMKRqae06TI-25" value="Transformer&lt;br&gt;Block" style="rounded=0;whiteSpace=wrap;html=1;" vertex="1" parent="1">
          <mxGeometry x="827" y="200" width="110" height="130" as="geometry" />
        </mxCell>
        <mxCell id="-YEli1nWcmMKRqae06TI-26" value="Decoder" style="rounded=0;whiteSpace=wrap;html=1;" vertex="1" parent="1">
          <mxGeometry x="827" y="200" width="110" height="30" as="geometry" />
        </mxCell>
        <mxCell id="-YEli1nWcmMKRqae06TI-27" value="$$\theta$$" style="rounded=1;whiteSpace=wrap;html=1;" vertex="1" parent="1">
          <mxGeometry x="460" y="220" width="65" height="40" as="geometry" />
        </mxCell>
        <mxCell id="-YEli1nWcmMKRqae06TI-30" value="隐变量Z" style="rounded=0;whiteSpace=wrap;html=1;" vertex="1" parent="1">
          <mxGeometry x="430" y="50" width="240" height="20" as="geometry" />
        </mxCell>
        <mxCell id="-YEli1nWcmMKRqae06TI-32" value="" style="html=1;shadow=0;dashed=0;align=center;verticalAlign=middle;shape=mxgraph.arrows2.arrow;dy=0.6;dx=40;notch=0;" vertex="1" parent="1">
          <mxGeometry x="350" y="125" width="70" height="45" as="geometry" />
        </mxCell>
        <mxCell id="-YEli1nWcmMKRqae06TI-33" value="" style="html=1;shadow=0;dashed=0;align=center;verticalAlign=middle;shape=mxgraph.arrows2.arrow;dy=0.6;dx=40;notch=0;" vertex="1" parent="1">
          <mxGeometry x="690" y="132.5" width="70" height="45" as="geometry" />
        </mxCell>
        <mxCell id="-YEli1nWcmMKRqae06TI-38" value="多专家Decoder" style="rounded=0;whiteSpace=wrap;html=1;textDirection=vertical-lr;" vertex="1" parent="1">
          <mxGeometry x="780" y="40" width="30" height="330" as="geometry" />
        </mxCell>
      </root>
    </mxGraphModel>
  </diagram>
</mxfile>
